<svg width="81" height="81" viewBox="0 0 81 81" fill="none" xmlns="http://www.w3.org/2000/svg">
<path d="M56.3887 5.71875C58.4611 5.71875 60.1387 7.3963 60.1387 9.46875V12.3857H66.3418C69.2488 12.3857 71.955 13.8914 73.4883 16.3643L75.5547 19.6973C78.8963 25.0926 75.2975 32.0013 69.1523 32.5215L68.4658 32.5791V64.1357C68.4657 65.9243 67.7551 67.6397 66.4912 68.9053C65.2274 70.1707 63.5131 70.8833 61.7246 70.8857H23.5723C21.2512 70.8865 18.9801 70.2083 17.0391 68.9355C15.098 67.6628 13.5711 65.8507 12.6465 63.7217C11.7219 61.5926 11.4399 59.2394 11.835 56.9521C12.23 54.665 13.2851 52.5432 14.8701 50.8477V50.8467L18.6543 46.79C20.5874 44.7155 21.6405 41.9719 21.5918 39.1367C21.5461 36.4789 20.5354 33.9348 18.7588 31.9736L18.3926 31.5889L14.6914 27.8838C14.3863 27.5529 14.2196 27.1173 14.2275 26.667C14.2355 26.2136 14.4196 25.7806 14.7402 25.46C15.0608 25.1394 15.494 24.9562 15.9473 24.9482C16.3949 24.9404 16.8281 25.1045 17.1582 25.4062L20.8652 29.1123C23.5108 31.7603 25.0258 35.3317 25.0908 39.0742C25.1558 42.8167 23.7657 46.4385 21.2139 49.1768L17.4268 53.2334V53.2344C16.3109 54.4332 15.5689 55.9317 15.292 57.5459C15.0151 59.1602 15.2156 60.8201 15.8682 62.3223C16.5208 63.8244 17.5971 65.1036 18.9658 66.0029C20.3347 66.9022 21.9364 67.3832 23.5742 67.3857H26.5898L26.582 66.6279C26.5746 65.9229 26.5762 65.0981 26.5957 64.1738L26.6221 63.2168C26.7411 59.6359 27.1411 54.8252 28.2695 49.9893V49.9883C29.39 45.1705 31.2712 40.1856 34.4453 36.376V36.375C37.2448 33.0139 41.0207 30.6115 45.9902 30.0234L46.6523 29.9453V15.4688L46.6641 14.9854C46.7835 12.5778 47.7915 10.2929 49.5029 8.5791C51.3285 6.75121 53.8053 5.72229 56.3887 5.71875Z" stroke="#1E1B19" stroke-width="1.5"/>
</svg>
