<svg width="81" height="81" viewBox="0 0 81 81" fill="none" xmlns="http://www.w3.org/2000/svg">
<path d="M53.833 73.834V25.5007H57.1663C59.3765 25.5007 61.4961 24.6227 63.0589 23.0599C64.6217 21.4971 65.4997 19.3775 65.4997 17.1673V12.1673H47.1663C44.9562 12.1673 42.8366 11.2893 41.2738 9.72654C39.711 8.16374 38.833 6.04412 38.833 3.83398V16.814C38.8324 20.5111 37.9194 24.1509 36.175 27.4106C34.4306 30.6703 31.9087 33.4491 28.833 35.5007C25.7573 37.5522 23.2354 40.331 21.491 43.5907C19.7466 46.8504 18.8336 50.4902 18.833 54.1873V72.1673H17.1663C14.9562 72.1673 12.8366 71.2893 11.2738 69.7265C9.71098 68.1637 8.83301 66.0441 8.83301 63.834V50.5006M27.1663 52.1673H35.4997V53.834C35.4997 58.834 35.4997 62.1673 37.9997 67.1673C37.9997 67.1673 40.4997 72.1673 43.833 72.1673" stroke="#1E1B19" stroke-width="1.5"/>
</svg>
