<svg width="51" height="51" viewBox="0 0 51 51" fill="none" xmlns="http://www.w3.org/2000/svg">
<path d="M25.5003 47.4255C37.8692 47.4255 47.8962 37.3985 47.8962 25.0296C47.8962 12.6607 37.8692 2.63379 25.5003 2.63379C13.1314 2.63379 3.10449 12.6607 3.10449 25.0296C3.10449 37.3985 13.1314 47.4255 25.5003 47.4255Z" stroke="#1E1B19" stroke-width="1.5" stroke-linecap="round" stroke-linejoin="round"/>
<path d="M24.9104 25.9348L26.3573 34.1389M11.3208 36.8181L9.875 28.6129L12.5375 28.1441C13.2638 28.0283 14.0066 28.2016 14.6067 28.6269C15.2067 29.0522 15.6163 29.6957 15.7477 30.4194C15.879 31.143 15.7216 31.8894 15.3092 32.4984C14.8969 33.1074 14.2624 33.5307 13.5417 33.6775L13.5146 33.6816L10.8521 34.1504M18.7313 35.5108L17.2844 27.3066L19.951 26.8358C20.6792 26.7153 21.4256 26.8859 22.0291 27.3108C22.6326 27.7357 23.045 28.3807 23.1771 29.1069C23.3093 29.833 23.1508 30.582 22.7357 31.1923C22.3206 31.8026 21.6822 32.2253 20.9583 32.3691L20.9271 32.3743L18.2604 32.8441M21.1219 32.3337L24.1656 34.5514M41.9833 30.3566C41.7819 30.7248 41.4994 31.0424 41.1573 31.2855C40.8152 31.5286 40.4223 31.6907 40.0083 31.7598C39.2782 31.8915 38.5256 31.7277 37.9161 31.3046C37.3067 30.8815 36.8902 30.2336 36.7583 29.5035L36.7531 29.4806L36.2833 26.8139C36.2176 26.4502 36.2244 26.0771 36.3035 25.716C36.3825 25.3549 36.5323 25.0131 36.744 24.7101C36.9558 24.4071 37.2254 24.1491 37.5373 23.9507C37.8492 23.7524 38.1973 23.6178 38.5615 23.5546C38.9745 23.4899 39.3966 23.5142 39.7995 23.6257C40.2025 23.7373 40.5769 23.9335 40.8979 24.2014M35.0865 27.2368L38.575 26.6223M35.4479 29.2868L38.9365 28.6723M33.5406 30.0473C33.6723 30.7774 33.5086 31.53 33.0855 32.1395C32.6624 32.7489 32.0145 33.1654 31.2844 33.2973L31.2604 33.3025C30.5303 33.4342 29.7777 33.2705 29.1682 32.8473C28.5587 32.4242 28.1423 31.7764 28.0104 31.0462L28.0062 31.0233L27.5177 28.2525C27.4516 27.8914 27.4573 27.5209 27.5345 27.1621C27.6117 26.8033 27.7589 26.4632 27.9677 26.1613C28.1765 25.8594 28.4428 25.6017 28.7513 25.4029C29.0598 25.204 29.4045 25.068 29.7656 25.0025L29.7969 24.9962C30.1556 24.9331 30.5234 24.943 30.8783 25.0252C31.2331 25.1074 31.5678 25.2602 31.8623 25.4746C32.1568 25.6889 32.405 25.9605 32.5923 26.2729C32.7795 26.5854 32.9019 26.9323 32.9521 27.2931M30.7104 14.1243L36.1479 13.166M34.9292 21.84L33.4812 13.6358M14.1927 21.315C14.4622 21.2677 14.7383 21.274 15.0054 21.3335C15.2725 21.3929 15.5252 21.5044 15.7492 21.6615C15.9731 21.8187 16.164 22.0184 16.3108 22.2493C16.4575 22.4801 16.5574 22.7377 16.6047 23.0072C16.6519 23.2766 16.6457 23.5528 16.5862 23.8199C16.5267 24.0869 16.4153 24.3396 16.2581 24.5636C16.101 24.7876 15.9013 24.9784 15.6704 25.1252C15.4395 25.272 15.182 25.3719 14.9125 25.4191L11.5333 26.016L10.0854 17.8108L13.4698 17.2139C13.7418 17.16 14.0219 17.1609 14.2936 17.2167C14.5653 17.2725 14.8231 17.382 15.0519 17.5387C15.2807 17.6955 15.4759 17.8964 15.626 18.1297C15.776 18.3629 15.878 18.6238 15.9259 18.897C15.9738 19.1702 15.9666 19.4502 15.9048 19.7206C15.843 19.9909 15.7277 20.2462 15.5659 20.4715C15.4041 20.6967 15.1989 20.8874 14.9623 21.0322C14.7258 21.1771 14.4627 21.2732 14.1885 21.315H14.1927ZM14.1927 21.315L10.8094 21.9118M23.1969 23.8358L19.0958 24.5598L17.649 16.3556L21.75 15.6327M18.3719 20.4577L21.0385 19.9868M24.9187 22.6233C25.2157 22.8871 25.5716 23.0757 25.9567 23.1733C26.3417 23.2708 26.7445 23.2744 27.1312 23.1837L28.3604 22.9671C28.6303 22.9198 28.8883 22.8197 29.1194 22.6726C29.3506 22.5255 29.5505 22.3342 29.7076 22.1097C29.8648 21.8852 29.9761 21.6319 30.0352 21.3644C30.0943 21.0968 30.1 20.8202 30.0521 20.5504C30.0043 20.2809 29.9039 20.0234 29.7566 19.7927C29.6092 19.562 29.4179 19.3625 29.1935 19.2058C28.969 19.0491 28.7159 18.9382 28.4486 18.8793C28.1812 18.8205 27.9049 18.8149 27.6354 18.8629L26.3021 19.0983C25.7584 19.1937 25.1992 19.0695 24.7471 18.7529C24.2949 18.4363 23.9869 17.9532 23.8906 17.4098C23.8433 17.1402 23.8495 16.864 23.909 16.5968C23.9684 16.3297 24.0799 16.0768 24.2371 15.8528C24.3943 15.6288 24.5941 15.4379 24.8251 15.2911C25.0561 15.1443 25.3137 15.0445 25.5833 14.9973L26.8125 14.7806C27.1983 14.6674 27.6075 14.6597 27.9973 14.7583C28.3872 14.8568 28.7435 15.0581 29.0292 15.341" stroke="#1E1B19" stroke-linecap="round" stroke-linejoin="round"/>
</svg>
