<svg width="81" height="81" viewBox="0 0 81 81" fill="none" xmlns="http://www.w3.org/2000/svg">
<path d="M9.6665 29.989C13.4451 25.4855 18.1649 21.8648 23.4936 19.382C28.8223 16.8991 34.6304 15.6144 40.5092 15.6182C46.3879 15.622 52.1944 16.9143 57.5199 19.404C62.8454 21.8938 67.5604 25.5206 71.3332 30.029" stroke="#5A3D31" stroke-width="1.5" stroke-linecap="round" stroke-linejoin="round"/>
<path d="M19.2998 39.9093C21.8981 36.8129 25.1435 34.3237 28.8076 32.6168C32.4717 30.91 36.4654 30.0271 40.5076 30.0303C44.5497 30.0335 48.542 30.9226 52.2035 32.6352C55.8649 34.3478 59.1064 36.8422 61.6998 39.9427M29.0165 50.0393C30.424 48.3624 32.182 47.0144 34.1666 46.09C36.1512 45.1656 38.3143 44.6874 40.5037 44.689C42.693 44.6905 44.8554 45.1719 46.8387 46.0992C48.822 47.0264 50.578 48.3771 51.9831 50.056" stroke="#5A3D31" stroke-width="1.5" stroke-linecap="round" stroke-linejoin="round"/>
<path d="M40.4998 64.439C43.16 64.439 45.3165 62.2825 45.3165 59.6223C45.3165 56.9622 43.16 54.8057 40.4998 54.8057C37.8397 54.8057 35.6832 56.9622 35.6832 59.6223C35.6832 62.2825 37.8397 64.439 40.4998 64.439Z" fill="#5A3D31"/>
</svg>
