<svg width="81" height="81" viewBox="0 0 81 81" fill="none" xmlns="http://www.w3.org/2000/svg">
<path d="M27.1667 53.863C27.1667 56.5151 26.1131 59.0587 24.2377 60.934C22.3624 62.8094 19.8188 63.863 17.1667 63.863M53.8333 53.863C53.8333 56.5151 54.8869 59.0587 56.7623 60.934C58.6376 62.8094 61.1812 63.863 63.8333 63.863M40.5 53.863V67.1963M10.5 23.863C10.5 22.0948 11.2024 20.3992 12.4526 19.1489C13.7029 17.8987 15.3986 17.1963 17.1667 17.1963H63.8333C65.6014 17.1963 67.2971 17.8987 68.5474 19.1489C69.7976 20.3992 70.5 22.0948 70.5 23.863V37.1963C70.5 38.9644 69.7976 40.6601 68.5474 41.9103C67.2971 43.1606 65.6014 43.863 63.8333 43.863H17.1667C15.3986 43.863 13.7029 43.1606 12.4526 41.9103C11.2024 40.6601 10.5 38.9644 10.5 37.1963V23.863Z" stroke="#5A3D31" stroke-width="1.5" stroke-linecap="round" stroke-linejoin="round"/>
<path d="M23.8335 43.8626V33.8626C23.8335 32.9786 24.1847 32.1307 24.8098 31.5056C25.4349 30.8805 26.2828 30.5293 27.1668 30.5293H53.8335C54.7176 30.5293 55.5654 30.8805 56.1905 31.5056C56.8156 32.1307 57.1668 32.9786 57.1668 33.8626V43.8626" stroke="#5A3D31" stroke-width="1.5" stroke-linecap="round" stroke-linejoin="round"/>
</svg>
