<svg width="81" height="81" viewBox="0 0 81 81" fill="none" xmlns="http://www.w3.org/2000/svg">
<g clip-path="url(#clip0_461_1232)">
<path d="M13.8332 16.5296V32.5296M13.8332 43.1963V59.1963M13.8332 72.5296V80.5296M67.1665 72.5296V80.5296M51.1665 51.1963C48.3375 51.1963 45.6244 50.0725 43.624 48.0721C41.6236 46.0717 40.4998 43.3586 40.4998 40.5296C40.4998 37.7006 41.6236 34.9875 43.624 32.9871C45.6244 30.9868 48.3375 29.863 51.1665 29.863C53.9955 29.863 56.7086 30.9868 58.709 32.9871C60.7094 34.9875 61.8332 37.7006 61.8332 40.5296C61.8332 43.3586 60.7094 46.0717 58.709 48.0721C56.7086 50.0725 53.9955 51.1963 51.1665 51.1963ZM8.49984 3.19629H72.4998C73.9143 3.19629 75.2709 3.75819 76.2711 4.75839C77.2713 5.75858 77.8332 7.11513 77.8332 8.52962V67.1963C77.8332 68.6108 77.2713 69.9673 76.2711 70.9675C75.2709 71.9677 73.9143 72.5296 72.4998 72.5296H8.49984C7.08535 72.5296 5.7288 71.9677 4.7286 70.9675C3.72841 69.9673 3.1665 68.6108 3.1665 67.1963V8.52962C3.1665 7.11513 3.72841 5.75858 4.7286 4.75839C5.7288 3.75819 7.08535 3.19629 8.49984 3.19629Z" stroke="#5A3D31" stroke-width="1.5"/>
</g>
<defs>
<clipPath id="clip0_461_1232">
<rect width="80" height="80" fill="white" transform="translate(0.5 0.529297)"/>
</clipPath>
</defs>
</svg>
