<svg width="81" height="81" viewBox="0 0 81 81" fill="none" xmlns="http://www.w3.org/2000/svg">
<path d="M23.8334 43.863C23.8334 39.4427 25.5893 35.2034 28.7149 32.0778C31.8405 28.9522 36.0798 27.1963 40.5 27.1963C44.9203 27.1963 49.1595 28.9522 52.2852 32.0778C55.4108 35.2034 57.1667 39.4427 57.1667 43.863V60.5296C57.1667 66.8163 57.1667 69.9563 55.2134 71.9096C53.26 73.863 50.12 73.863 43.8334 73.863H37.1667C30.88 73.863 27.74 73.863 25.7867 71.9096C23.8334 69.9563 23.8334 66.8163 23.8334 60.5296V43.863Z" stroke="#5A3D31" stroke-width="1.5" stroke-linecap="round" stroke-linejoin="round"/>
<path d="M33.8334 27.1963V23.863C33.8334 20.7196 33.8334 19.1496 34.81 18.173C35.7867 17.1963 37.3567 17.1963 40.5 17.1963M40.5 17.1963C43.6434 17.1963 45.2134 17.1963 46.19 18.173C47.1667 19.1496 47.1667 20.7196 47.1667 23.863V27.1963M40.5 17.1963V7.19629M40.5 7.19629H33.8334M40.5 7.19629H49.65C52.1739 7.19693 54.6042 8.1519 56.4534 9.86962L57.1667 10.5296M23.8334 43.863H57.1667" stroke="#5A3D31" stroke-width="1.5" stroke-linecap="round" stroke-linejoin="round"/>
</svg>
