<svg width="81" height="81" viewBox="0 0 81 81" fill="none" xmlns="http://www.w3.org/2000/svg">
<path d="M27.1667 33.8626C30.8486 33.8626 33.8333 30.8779 33.8333 27.196C33.8333 23.5141 30.8486 20.5293 27.1667 20.5293C23.4848 20.5293 20.5 23.5141 20.5 27.196C20.5 30.8779 23.4848 33.8626 27.1667 33.8626Z" stroke="#5A3D31" stroke-width="1.5" stroke-linecap="round" stroke-linejoin="round"/>
<path d="M60.4998 37.1963C60.4998 37.1963 37.1665 47.1963 27.1665 47.1963C21.8622 47.1963 16.7751 45.0892 13.0244 41.3384C9.27364 37.5877 7.1665 32.5006 7.1665 27.1963C7.1665 21.892 9.27364 16.8049 13.0244 13.0542C16.7751 9.30343 21.8622 7.19629 27.1665 7.19629C37.1665 7.19629 60.4998 17.1963 60.4998 17.1963M60.4998 37.1963V17.1963M60.4998 37.1963L73.8332 43.863V10.5296L60.4998 17.1963" stroke="#5A3D31" stroke-width="1.5" stroke-linecap="round" stroke-linejoin="round"/>
<path d="M23.833 46.8626L26.4997 63.8626C26.833 65.5293 28.4997 67.196 30.4997 67.196H37.1663C39.1663 67.196 40.1663 65.8626 39.833 63.8626L36.833 45.5293M39.2997 60.5293C39.2997 60.5293 50.2997 53.8626 63.633 53.8626C65.4011 53.8626 67.0968 54.565 68.3471 55.8153C69.5973 57.0655 70.2997 58.7612 70.2997 60.5293C70.2997 62.2974 69.5973 63.9931 68.3471 65.2433C67.0968 66.4936 65.4011 67.196 63.633 67.196H57.1663C55.3982 67.196 53.7025 67.8983 52.4523 69.1486C51.2021 70.3988 50.4997 72.0945 50.4997 73.8626" stroke="#5A3D31" stroke-width="1.5" stroke-linecap="round" stroke-linejoin="round"/>
</svg>
