<svg width="81" height="81" viewBox="0 0 81 81" fill="none" xmlns="http://www.w3.org/2000/svg">
<g clip-path="url(#clip0_461_1202)">
<path d="M33.8333 63.363V78.363M33.8333 63.363C33.8333 50.0296 44.39 30.6763 57.3767 19.853L62.1667 15.863V15.0296H45.5933M33.8333 63.363C33.8333 50.0296 23.2767 30.6763 10.29 19.853L5.5 15.863V15.0296H45.5933M33.8333 78.363H17.1667M33.8333 78.363H50.5M45.5933 15.0296C45.9151 12.1519 47.0629 9.42881 48.8982 7.18906C50.7335 4.94932 53.1779 3.28866 55.9362 2.40756C58.6946 1.52647 61.649 1.46259 64.4428 2.22364C67.2367 2.98469 69.7505 4.53814 71.6809 6.69646C73.6114 8.85478 74.8758 11.5257 75.3216 14.3868C75.7674 17.248 75.3756 20.177 74.1934 22.8203C73.0112 25.4637 71.0891 27.7083 68.6593 29.2833C66.2295 30.8583 63.3957 31.6964 60.5 31.6963M18.8333 28.363H48.8333" stroke="#5A3D31" stroke-width="1.5"/>
</g>
<defs>
<clipPath id="clip0_461_1202">
<rect width="80" height="80" fill="white" transform="translate(0.5 0.0292969)"/>
</clipPath>
</defs>
</svg>
