<svg width="81" height="81" viewBox="0 0 81 81" fill="none" xmlns="http://www.w3.org/2000/svg">
<path d="M9.48259 7.48828L67.0498 65.0555C68.1421 66.1479 68.7557 67.6294 68.7557 69.1742C68.7557 70.719 68.1421 72.2006 67.0498 73.293C65.9572 74.3849 64.4757 74.9983 62.931 74.9983C61.3863 74.9983 59.9049 74.3849 58.8123 73.293L44.7498 58.9883C43.8295 58.0538 43.3132 56.7951 43.3123 55.4836V54.6195C43.3124 53.9573 43.181 53.3016 42.9256 52.6906C42.6703 52.0796 42.2961 51.5254 41.8248 51.0602L40.0092 49.3836C39.3928 48.8149 38.6433 48.4103 37.8296 48.2072C37.0159 48.004 36.1642 48.0088 35.3529 48.2211C34.0735 48.555 32.729 48.5486 31.4528 48.2024C30.1767 47.8562 29.0132 47.1823 28.0779 46.2476L14.7295 32.8977C6.81071 24.9789 3.89665 13.0211 9.48259 7.48828Z" stroke="#5A3D31" stroke-width="1.5" stroke-linejoin="round"/>
<path d="M63 5.0293L50.9297 17.0996C50.0009 18.0282 49.2641 19.1307 48.7614 20.3441C48.2587 21.5575 48 22.8581 48 24.1715V26.4934C48.0001 26.8219 47.9354 27.1472 47.8096 27.4507C47.6839 27.7542 47.4996 28.0299 47.2672 28.2621L45.5 30.0293M50.5 35.0293L52.2672 33.2621C52.4994 33.0297 52.7752 32.8454 53.0786 32.7197C53.3821 32.5939 53.7074 32.5292 54.036 32.5293H56.3578C57.6712 32.5293 58.9718 32.2706 60.1852 31.7679C61.3986 31.2652 62.5011 30.5284 63.4297 29.5996L75.5 17.5293M69.25 11.2793L56.75 23.7793M31.75 57.5293L16.1688 73.1981C14.9967 74.3697 13.4073 75.028 11.75 75.028C10.0927 75.028 8.50331 74.3697 7.33126 73.1981C6.15956 72.026 5.50134 70.4366 5.50134 68.7793C5.50134 67.122 6.15956 65.5326 7.33126 64.3606L20.5 51.2793" stroke="#5A3D31" stroke-width="1.5" stroke-linecap="round" stroke-linejoin="round"/>
</svg>
