<svg width="40" height="41" viewBox="0 0 40 41" fill="none" xmlns="http://www.w3.org/2000/svg">
<path d="M3.75 32.6543V23.9043C3.75392 22.5794 4.28196 21.3099 5.21879 20.3731C6.15563 19.4363 7.42512 18.9082 8.75 18.9043H31.25C32.5749 18.9082 33.8444 19.4363 34.7812 20.3731C35.718 21.3099 36.2461 22.5794 36.25 23.9043V32.6543M30 18.9043H7.5V10.7793C7.50247 9.95126 7.83251 9.15784 8.41802 8.57232C9.00354 7.9868 9.79696 7.65677 10.625 7.6543H29.375C30.203 7.65677 30.9965 7.9868 31.582 8.57232C32.1675 9.15784 32.4975 9.95126 32.5 10.7793V18.9043H30Z" stroke="#1E1B19" stroke-width="1.5" stroke-linecap="round" stroke-linejoin="round"/>
<path d="M3.75 32.6543V32.0293C3.75144 31.5325 3.94945 31.0564 4.30077 30.7051C4.65209 30.3537 5.12816 30.1557 5.625 30.1543H34.375C34.8718 30.1557 35.3479 30.3537 35.6992 30.7051C36.0506 31.0564 36.2486 31.5325 36.25 32.0293V32.6543M8.75 18.9043V17.6543C8.75186 16.9918 9.01584 16.357 9.48428 15.8886C9.95272 15.4201 10.5875 15.1562 11.25 15.1543H17.5C18.1625 15.1562 18.7973 15.4201 19.2657 15.8886C19.7342 16.357 19.9981 16.9918 20 17.6543M20 17.6543V18.9043M20 17.6543C20.0019 16.9918 20.2658 16.357 20.7343 15.8886C21.2027 15.4201 21.8375 15.1562 22.5 15.1543H28.75C29.4125 15.1562 30.0473 15.4201 30.5157 15.8886C30.9842 16.357 31.2481 16.9918 31.25 17.6543V18.9043" stroke="#1E1B19" stroke-width="1.5" stroke-linecap="round" stroke-linejoin="round"/>
</svg>
