<svg width="40" height="41" viewBox="0 0 40 41" fill="none" xmlns="http://www.w3.org/2000/svg">
<path d="M30.8334 24.3812V30.227C30.8334 33.2612 28.4075 35.7212 25.4142 35.7212C22.4209 35.7212 19.995 33.2612 19.995 30.227L20.005 11.6737C20.005 8.38619 17.5792 5.72119 14.5859 5.72119C11.5925 5.72119 9.16669 8.38619 9.16669 11.6737V24.382" stroke="#1E1B19" stroke-width="1.5" stroke-linecap="round" stroke-linejoin="round"/>
<path d="M35.8334 26.5544L30.8334 21.5544L25.8334 26.5544M35.8334 9.66023C35.8334 13.3727 30.8334 16.5544 30.8334 16.5544C30.8334 16.5544 25.8334 13.3727 25.8334 9.66023C25.8334 8.3944 26.36 7.18106 27.2975 6.28523C28.2534 5.38328 29.5192 4.88298 30.8334 4.88773C32.1476 4.88298 33.4134 5.38328 34.3692 6.28523C34.8292 6.71922 35.1962 7.24218 35.4479 7.82236C35.6996 8.40253 35.8307 9.02782 35.8334 9.66023ZM14.1667 29.6602C14.1667 33.3727 9.16669 36.5544 9.16669 36.5544C9.16669 36.5544 4.16669 33.3727 4.16669 29.6602C4.16669 28.3944 4.69335 27.1811 5.63085 26.2852C6.58669 25.3833 7.85249 24.883 9.16669 24.8877C10.4809 24.883 11.7467 25.3833 12.7025 26.2852C13.1626 26.7193 13.5297 27.2424 13.7814 27.8227C14.0331 28.4031 14.1642 29.0277 14.1667 29.6602Z" stroke="#1E1B19" stroke-width="1.5" stroke-linecap="round" stroke-linejoin="round"/>
<path d="M30.8334 11.5545C31.7538 11.5545 32.5 10.8083 32.5 9.88786C32.5 8.96738 31.7538 8.22119 30.8334 8.22119C29.9129 8.22119 29.1667 8.96738 29.1667 9.88786C29.1667 10.8083 29.9129 11.5545 30.8334 11.5545Z" fill="#1E1B19"/>
<path d="M9.16667 31.5545C10.0871 31.5545 10.8333 30.8083 10.8333 29.8879C10.8333 28.9674 10.0871 28.2212 9.16667 28.2212C8.24619 28.2212 7.5 28.9674 7.5 29.8879C7.5 30.8083 8.24619 31.5545 9.16667 31.5545Z" fill="#1E1B19"/>
</svg>
