<svg width="181" height="88" viewBox="0 0 181 88" fill="none" xmlns="http://www.w3.org/2000/svg">
<path d="M88.0154 0.0726776C81.03 0.536095 74.5012 3.2212 70.1669 7.41923C67.2501 10.2543 65.4441 13.6345 64.9807 17.1374C64.8648 18.0506 64.8444 19.9452 64.9466 20.7834C65.6554 26.5148 69.6899 31.626 76.0551 34.8495C81.9432 37.8345 89.0512 38.8295 96.023 37.6437C103.39 36.3897 109.755 32.5938 113.142 27.428C115.889 23.2436 116.461 18.2823 114.723 13.7708C113.047 9.42965 109.278 5.60644 104.235 3.1326C99.4373 0.781433 93.7195 -0.302147 88.0154 0.0726776ZM92.3088 0.74736C100.644 1.29937 107.847 4.74775 111.909 10.1248C116.604 16.3537 115.936 24.1977 110.219 29.9427C102.313 37.9026 87.4633 39.8245 76.464 34.3112C70.2214 31.1831 66.2551 26.1468 65.6281 20.5449C65.2124 16.8103 66.405 12.9803 69.022 9.67499C69.7171 8.79585 71.3527 7.1807 72.3068 6.44469C73.1928 5.75637 74.2763 5.03399 75.2645 4.46834C80.0146 1.73553 86.3593 0.352089 92.3088 0.74736Z" fill="#FFFEFE"/>
<path d="M88.0829 1.8105C82.5696 2.24666 77.656 3.91633 73.8192 6.66277C67.7947 10.9767 65.3618 17.2124 67.3586 23.2027C69.1441 28.5457 74.3712 32.9959 81.3225 35.0881C83.9735 35.8922 86.5359 36.2875 89.5141 36.3693C96.3972 36.5465 103.021 34.502 107.744 30.7333C108.61 30.0382 110.068 28.5866 110.675 27.8165C112.194 25.8742 113.183 23.8093 113.66 21.6012C113.823 20.8107 113.837 20.6267 113.837 19.0797C113.844 17.5122 113.83 17.3555 113.653 16.5377C113.026 13.6004 111.513 10.9562 109.134 8.64593C105.407 5.02718 100.166 2.72371 93.8416 1.93317C93.0238 1.83095 88.928 1.74235 88.0829 1.8105ZM92.9965 4.73413C95.1296 4.93858 97.3445 5.39518 99.1982 6.01535C101.59 6.82633 103.689 7.9031 105.488 9.25246C106.49 10.0021 107.99 11.481 108.651 12.3805C111.622 16.4082 111.772 21.0969 109.059 25.1723C106.156 29.5339 100.398 32.5665 93.5009 33.3571C91.3541 33.6024 88.485 33.5615 86.2156 33.248C79.0463 32.253 73.1445 28.6547 70.7184 23.8093C70.3231 23.0255 69.9619 21.9897 69.7711 21.0969C69.6484 20.5244 69.6211 20.1905 69.6211 19.0797C69.6211 17.5736 69.7234 16.933 70.1663 15.6654C72.204 9.80448 79.1962 5.45652 87.7763 4.70687C88.9076 4.61146 91.8244 4.62509 92.9965 4.73413Z" fill="#FFFEFE"/>
<path d="M88.7652 8.14159C86.2096 8.42101 83.8448 9.23199 82.0184 10.4587C80.778 11.2901 80.0625 11.9716 79.0675 13.2665C78.4064 14.1183 77.7249 15.5563 77.5341 16.4763C77.4319 16.9534 77.4455 17.2737 77.5545 17.2055C77.5886 17.1851 77.8135 16.7898 78.0588 16.3196C79.4832 13.614 81.0711 11.9512 83.3132 10.8335C85.3645 9.81126 87.3817 9.44325 91.0141 9.43644C93.1063 9.43644 93.597 9.47733 94.9464 9.74993C96.2344 10.0089 97.5088 10.5268 98.3743 11.1402C98.9263 11.5286 99.676 12.3396 99.9963 12.878C100.971 14.5477 100.937 16.967 99.9077 19.0115C99.4579 19.8974 98.054 21.5058 97.0113 22.3168C95.2053 23.7275 93.1131 24.4362 90.9664 24.3817L90.2372 24.3613L91.0687 22.8279C92.6088 20.0065 93.3312 18.9093 94.2035 18.0847C94.7215 17.5872 95.4984 17.1169 95.8528 17.0965C96.1799 17.0692 95.1713 16.9806 94.5238 16.9738C92.1931 16.9534 90.6529 17.6076 89.5489 19.0933C89.3172 19.4068 88.6016 20.5653 87.961 21.6761C87.3136 22.787 86.7411 23.7615 86.6866 23.8365L86.5844 23.9864L85.5621 23.8024C85.0033 23.7002 84.5331 23.6116 84.5195 23.6048C84.5058 23.598 84.6966 23.3049 84.9352 22.9506C85.1737 22.603 85.862 21.4853 86.4617 20.4767C89.1059 16.0197 90.6393 14.1047 92.4112 13.0279C93.045 12.6463 93.7674 12.3464 94.483 12.1624C94.8237 12.0738 95.0554 11.9852 95.0009 11.9648C94.9464 11.9444 94.5307 11.8762 94.0809 11.8149C92.9223 11.6445 90.7688 11.6513 89.8624 11.8149C88.1246 12.1284 86.8638 12.7826 85.6712 13.9616C84.6353 14.9907 83.5858 16.5308 81.48 20.1087C80.8939 21.1105 80.2192 22.2145 79.9875 22.5621L79.565 23.2027L79.122 23.2504C77.5954 23.4208 75.8099 24.1159 74.6309 25.0155C74.1675 25.3631 73.8881 25.6629 73.9562 25.7242C73.9699 25.7379 74.2425 25.5743 74.5559 25.3562C75.5986 24.6543 76.5664 24.3544 78.0248 24.2795L78.7949 24.2386L78.7199 24.3885C78.57 24.6611 77.4455 25.7242 77.0434 25.956C76.4437 26.3172 76.0348 26.433 75.3737 26.433C74.9171 26.4398 74.7127 26.3989 74.3924 26.2694C74.1675 26.1809 73.9767 26.1127 73.963 26.1263C73.9494 26.14 74.0585 26.2558 74.2084 26.3921C74.8285 26.9578 75.9326 27.319 77.1865 27.3735C79.2447 27.4689 81.0029 26.8146 82.8498 25.2676L83.4154 24.7974L84.5399 25.0223C85.2555 25.1586 85.6644 25.2745 85.6644 25.329C85.6644 25.4585 84.5876 26.5625 84.0969 26.9305C83.4495 27.4212 82.6726 27.7756 81.9502 27.9119C81.112 28.0618 81.0847 28.0754 81.4391 28.1913C81.9298 28.3412 83.0474 28.4298 83.7902 28.3821C85.7939 28.2594 87.4363 27.6052 88.6561 26.4671L89.2422 25.9219L90.1623 26.0377C92.6974 26.3717 95.4984 26.2422 97.7882 25.6834C102.463 24.5384 105.373 21.499 105.762 17.3555C105.884 16.0538 105.687 14.793 105.189 13.7094C103.67 10.4314 100.017 8.57094 94.1899 8.11433C92.9496 8.01211 89.7738 8.03255 88.7652 8.14159Z" fill="#FFFEFE"/>
<path d="M84.4779 47.6208C84.4642 47.6481 83.3738 50.3127 82.0654 53.5362C80.7501 56.7597 79.5983 59.5743 79.4961 59.7992C79.1281 60.6442 78.835 60.8555 78.0309 60.8555H77.5538V61.1622V61.4689H79.7346H81.9154V61.1622V60.8555H81.3021C79.9527 60.8555 79.8709 60.5965 80.6342 58.6883L81.0499 57.6525L83.2307 57.6661L85.4183 57.6865L86.0112 59.254L86.5973 60.8214L85.6909 60.8419L84.7777 60.8623V61.1622V61.4689H88.1171H91.4564V61.1622V60.8623L90.734 60.8419L90.0116 60.8214L88.2261 56.085C87.2447 53.4817 86.1203 50.4967 85.725 49.4609L85.0162 47.5663H84.7641C84.6278 47.5663 84.4983 47.5935 84.4779 47.6208ZM84.2598 54.6402C84.73 55.8806 85.1185 56.9301 85.1185 56.971C85.1185 57.0187 84.4983 57.0391 83.2443 57.0391C81.9495 57.0391 81.3702 57.0187 81.3702 56.9642C81.3702 56.9233 81.7382 55.9964 82.1812 54.906C83.3534 52.0437 83.292 52.18 83.3534 52.2823C83.3806 52.3368 83.7895 53.3931 84.2598 54.6402Z" fill="#FFFEFE"/>
<path d="M52.8159 47.7094C51.6301 47.8525 50.5056 48.3977 49.572 49.2904C48.6042 50.2037 48.0045 51.2191 47.6569 52.5276C47.4934 53.1341 47.4729 53.3045 47.4729 54.5857C47.4661 56.1259 47.5411 56.5825 47.9773 57.7001C48.5429 59.1722 49.7491 60.5147 51.0508 61.1281C51.8686 61.5097 52.4683 61.6256 53.5655 61.6256C54.4379 61.6256 54.6219 61.6051 55.1534 61.4416C56.2029 61.1281 56.973 60.651 57.7295 59.8605C59.072 58.443 59.6241 56.746 59.5423 54.279C59.5014 52.9296 59.3515 52.1868 58.9221 51.2259C58.3701 49.9788 57.1775 48.7929 55.8554 48.1728C54.9967 47.7707 53.8177 47.5935 52.8159 47.7094ZM54.5265 48.459C55.0785 48.6975 55.4465 49.2223 55.6441 50.0333C55.8894 51.0351 55.8963 58.1772 55.6509 59.2948C55.4124 60.3852 54.7854 60.9645 53.7427 61.0395C52.4274 61.1417 51.6505 60.5556 51.337 59.2267C51.228 58.7633 51.2144 58.3135 51.2144 54.722C51.2144 50.3877 51.2348 50.1014 51.5824 49.3586C51.8618 48.7725 52.2775 48.4658 52.9794 48.3159C53.3952 48.2273 54.1448 48.2955 54.5265 48.459Z" fill="#FFFEFE"/>
<path d="M135.617 47.6822C134.629 47.7572 133.443 48.2138 132.639 48.8203C132.039 49.2769 131.344 50.0538 130.976 50.6808C130.342 51.7575 130.049 52.7866 129.981 54.2109C129.913 55.7307 130.145 56.9233 130.744 58.1636C131.589 59.8946 132.898 61.0259 134.567 61.4757C135.304 61.6734 136.796 61.6938 137.491 61.5098C138.486 61.2508 139.29 60.7942 140.067 60.0446C141.321 58.8451 141.928 57.4617 142.091 55.4376C142.296 52.9774 141.566 50.6808 140.163 49.3859C139.413 48.6908 138.568 48.1797 137.723 47.9139C137.341 47.7912 136.189 47.614 135.992 47.6481C135.958 47.6549 135.787 47.6686 135.617 47.6822ZM137 48.425C137.443 48.575 137.88 49.0724 138.064 49.6313C138.295 50.3196 138.343 50.8852 138.384 53.4272C138.432 56.1532 138.343 58.7361 138.173 59.3903C137.852 60.5966 137.075 61.135 135.781 61.0396C134.663 60.9578 134.09 60.3512 133.831 58.9678C133.709 58.3136 133.702 51.0897 133.831 50.3809C134.056 49.0724 134.547 48.4932 135.617 48.2887C135.903 48.2342 136.66 48.3092 137 48.425Z" fill="#FFFEFE"/>
<path d="M0 48.1388V48.4523H0.851873H1.70375V54.6539V60.8555H0.851873H0V61.169V61.4757L3.93906 61.4484C8.13028 61.4212 8.24613 61.4144 9.26156 61.0532C10.4201 60.6511 11.8104 59.3494 12.5191 58.0137C13.7117 55.7511 13.6232 52.7389 12.2942 50.6535C11.565 49.5086 10.5223 48.6703 9.26838 48.2342C8.28021 47.8934 8.24613 47.8866 4.00721 47.8594L0 47.8321V48.1388ZM7.91901 48.6499C8.13028 48.7317 8.38925 48.8612 8.49147 48.9429C8.94126 49.3041 9.31608 50.2173 9.47964 51.3827C9.60913 52.255 9.60913 56.5212 9.48646 57.5162C9.28882 59.1109 9.00259 59.8674 8.4574 60.2763C7.88494 60.692 7.40789 60.8078 6.11986 60.8419L4.97494 60.8692V54.6539V48.4386L6.25616 48.4659C7.367 48.4931 7.57826 48.5136 7.91901 48.6499Z" fill="#FFFEFE"/>
<path d="M14.5842 48.1456V48.4522H15.4702H16.3561V54.6539V60.8555H15.4702H14.5842V61.1622V61.4689H18.0258H21.4674V61.1622V60.8555H20.5473H19.6273V54.6539V48.4522H20.5473H21.4674V48.1456V47.8389H18.0258H14.5842V48.1456Z" fill="#FFFEFE"/>
<path d="M22.2163 48.1456V48.4522H23.0682H23.9201V54.6539V60.8555H23.0682H22.2163V61.1622V61.4689H25.692H29.1676V61.1622V60.8555H28.1794H27.1912V57.9591V55.0628H28.0431C30.3738 55.0628 31.9617 54.6266 32.8954 53.7202C33.6178 53.0183 33.9381 52.3231 33.9381 51.4236C33.9381 49.8425 32.8204 48.5681 31.0417 48.1115C30.1558 47.8866 29.2562 47.8389 25.6851 47.8389H22.2163V48.1456ZM29.338 48.5885C29.8491 48.7453 30.1898 49.2428 30.367 50.1083C30.5101 50.7693 30.4624 52.6094 30.2921 53.1546C30.1149 53.7134 29.8695 54.0473 29.4743 54.245C29.1676 54.3949 29.0381 54.4153 28.1658 54.4358L27.1912 54.4631V51.4508V48.4318L28.1317 48.4727C28.6428 48.4931 29.188 48.5476 29.338 48.5885Z" fill="#FFFEFE"/>
<path d="M34.6874 48.1456V48.4522H35.6074H36.5274V54.6539V60.8555H35.6074H34.6874V61.1622V61.4689H40.3779C43.506 61.4689 46.0684 61.4484 46.0684 61.4143C46.0684 61.3871 46.1161 60.4739 46.1706 59.3903C46.3069 56.637 46.3274 56.9028 46.0002 56.9028C45.7617 56.9028 45.714 56.9301 45.6527 57.0868C45.3665 57.8433 44.9371 58.7769 44.7054 59.1245C44.3101 59.731 43.6559 60.3512 43.138 60.6034L42.695 60.8214L41.2502 60.8419L39.7986 60.8691V54.6607V48.4522H40.8209H41.8431V48.1456V47.8389H38.2652H34.6874V48.1456Z" fill="#FFFEFE"/>
<path d="M60.5851 48.1456V48.4522H61.5733H62.5614V54.2586C62.5614 57.9251 62.5342 60.1604 62.4933 60.3171C62.3706 60.7533 62.2343 60.8214 61.362 60.8419L60.5851 60.8691V61.169V61.4689H62.834H65.083V61.169V60.8691L64.4151 60.8419C63.6178 60.8146 63.4201 60.7192 63.3111 60.3171C63.2634 60.1399 63.2497 58.2181 63.2566 54.5448L63.277 49.0383L65.0421 54.5244C66.0166 57.5366 66.9162 60.3308 67.0457 60.7328C67.2774 61.462 67.2774 61.4689 67.4955 61.4689H67.7136L69.6422 55.4512C70.7053 52.146 71.6049 49.3791 71.6322 49.3041C71.6594 49.2291 71.6867 51.7984 71.6867 55.0083L71.6935 60.8555H70.8076H69.9216V61.1622V61.4689H73.3291H76.7366V61.1622V60.8555H75.8847H75.0328V54.6539V48.4522H75.8847H76.7366V48.1456V47.8389H74.0924H71.4414L70.1533 51.7916C69.4446 53.9656 68.8517 55.7443 68.8312 55.7443C68.8108 55.7443 68.2247 53.9724 67.5296 51.8052L66.262 47.873L63.4269 47.8525L60.5851 47.8389V48.1456Z" fill="#FFFEFE"/>
<path d="M91.3685 48.8066C91.3412 49.345 91.3208 50.34 91.3208 51.0215V52.2686H91.5934C91.8319 52.2686 91.866 52.2482 91.9001 52.0778C92.1522 50.9261 92.6156 49.897 93.154 49.3177C93.7129 48.7248 94.333 48.4522 95.1099 48.4522H95.3416V54.6539V60.8555H94.3194H93.2971V61.1622V61.4689H97.0113H100.725V61.1622V60.8555H99.6692H98.6128V54.6539V48.4522H98.8786C99.2466 48.4522 99.8055 48.5681 100.099 48.7044C100.235 48.7657 100.541 49.0043 100.766 49.236C101.366 49.8289 101.741 50.6058 102.088 51.9756C102.157 52.2618 102.17 52.2686 102.429 52.2686H102.702V51.6008C102.702 51.2328 102.681 50.2309 102.654 49.3859L102.613 47.8389H97.0113H91.4094L91.3685 48.8066Z" fill="#FFFEFE"/>
<path d="M114.081 48.1456V48.4522H114.933H115.785V54.6539V60.8555H114.933H114.081V61.1622V61.4689H117.455H120.828V61.1622V60.8623L119.963 60.8419L119.09 60.8214V57.8228V54.8242L121.36 54.8038L123.622 54.7902V57.8228V60.8555H122.771H121.919V61.1622V61.4689H125.292H128.665V61.1622V60.8555H127.814H126.962V54.6539V48.4522H127.814H128.665V48.1456V47.8389H125.292H121.919V48.1456V48.4522H122.771H123.622V51.2805V54.1087L121.36 54.095L119.09 54.0746V51.2805V48.4863L119.963 48.4659L120.828 48.4454V48.1456V47.8389H117.455H114.081V48.1456Z" fill="#FFFEFE"/>
<path d="M143.729 48.609C143.729 49.0383 143.708 50.0333 143.681 50.8239L143.64 52.2686H143.926C144.097 52.2686 144.219 52.2346 144.24 52.18C144.253 52.1391 144.342 51.8052 144.437 51.4508C144.949 49.5835 145.882 48.5885 147.225 48.4795L147.75 48.4318V54.6471V60.8555H146.693H145.637V61.1622V61.4689H149.351H153.065V61.1622V60.8555H152.043H151.021V54.6539V48.4522H151.314C152.759 48.4522 153.801 49.5358 154.34 51.5871L154.517 52.2686H154.783H155.042V50.7148C155.042 49.8629 155.021 48.868 154.994 48.4999L154.953 47.8389H149.337H143.729V48.609Z" fill="#FFFEFE"/>
<path d="M156.133 48.1456V48.4522H157.019H157.905V54.6539V60.8555H157.019H156.133V61.1622V61.4689H162.048H167.971L168.087 59.5061C168.148 58.4294 168.216 57.4344 168.236 57.2913L168.277 57.0391H167.937H167.603L167.48 57.4616C167.412 57.7002 167.207 58.2113 167.017 58.5997C166.465 59.7515 165.701 60.4193 164.57 60.7465C164.27 60.8351 163.868 60.8555 162.682 60.8555H161.176V57.8842V54.9128L161.81 54.9401C162.539 54.9742 162.975 55.1377 163.377 55.5262C163.786 55.9215 164.107 56.6575 164.107 57.2231C164.107 57.4412 164.113 57.448 164.413 57.448H164.72V54.6539V51.8597H164.427H164.134L164.052 52.2482C163.861 53.175 163.336 53.8701 162.635 54.1291C162.451 54.1973 162.048 54.2722 161.742 54.2927L161.176 54.3336V51.3827V48.4386L162.628 48.4727C164.216 48.5068 164.584 48.5749 165.286 48.9497C165.96 49.3041 166.587 50.1492 167.003 51.26C167.119 51.5803 167.126 51.5871 167.419 51.5871H167.719L167.712 51.2941C167.705 51.1373 167.671 50.2991 167.623 49.4404L167.548 47.873L161.844 47.8525L156.133 47.8389V48.1456Z" fill="#FFFEFE"/>
<path d="M169.353 48.1456V48.4522H170.273H171.193V54.6539V60.8555H170.273H169.353V61.1622V61.4689H175.078H180.802V61.1145C180.802 60.726 180.918 58.0886 180.966 57.3594L181 56.9028H180.714H180.421L180.128 57.6457C179.603 58.9882 178.969 59.8878 178.185 60.4057C177.62 60.7805 177.218 60.8555 175.746 60.8555H174.464V54.6539V48.4522H175.487H176.509V48.1456V47.8389H172.931H169.353V48.1456Z" fill="#FFFEFE"/>
<path d="M36.5834 72.6386C36.0587 72.8089 35.7792 72.9929 35.3703 73.4427C34.9683 73.8857 34.7979 74.1924 34.6548 74.7376C34.5253 75.2419 34.5253 75.7326 34.6616 76.196C34.7979 76.6526 34.9751 76.9456 35.3635 77.3682C35.8542 77.8997 36.3449 78.1042 37.926 78.4313C39.3367 78.7175 39.9977 79.1128 40.318 79.8488C40.4884 80.2441 40.4748 81.0483 40.2976 81.4503C40.0999 81.8865 39.6161 82.3363 39.0641 82.6089C38.6347 82.8201 38.5734 82.8338 37.8578 82.8338C37.1695 82.8338 37.0741 82.8201 36.6993 82.6361C35.9428 82.2681 35.2272 81.3822 34.832 80.3259C34.7843 80.21 34.7093 80.1419 34.6207 80.1419C34.4912 80.1419 34.4844 80.1827 34.4844 81.573C34.4844 83.229 34.4708 83.2086 35.0909 82.6702L35.4726 82.3363L35.7452 82.5339C35.8951 82.6361 36.2495 82.827 36.5289 82.9428C36.9582 83.1268 37.1491 83.1677 37.6943 83.195C38.7574 83.2427 39.5275 82.9496 40.2431 82.2272C40.9109 81.5594 41.2312 80.7552 41.2312 79.767C41.2244 78.8334 40.9927 78.1723 40.4339 77.5522C39.8955 76.9524 39.4048 76.7412 37.7692 76.3868C37.224 76.2709 36.6039 76.1142 36.4062 76.0392C35.1318 75.5622 34.9478 74.281 36.0178 73.3405C36.4062 72.9998 36.9037 72.843 37.5988 72.843C38.3417 72.843 38.7983 73.0202 39.323 73.5109C39.7047 73.8653 40.1681 74.6149 40.2908 75.0851C40.318 75.1806 40.3862 75.2351 40.4748 75.2351C40.6179 75.2351 40.6179 75.2078 40.6179 73.9061C40.6179 72.6386 40.6111 72.5772 40.4884 72.5772C40.4134 72.5772 40.2976 72.6726 40.2158 72.8021C40.1408 72.9248 40.0182 73.0815 39.95 73.1429C39.8342 73.2451 39.8137 73.2451 39.5684 73.0815C39.0095 72.6999 38.5257 72.5568 37.7215 72.5295C37.1218 72.5159 36.8901 72.5363 36.5834 72.6386Z" fill="#FFFEFE"/>
<path d="M114.308 72.6931L113.265 72.7204V72.884C113.265 73.0543 113.279 73.0543 113.81 73.0543H114.355V77.8589V82.6635H113.81C113.272 82.6635 113.265 82.6635 113.265 82.8338V83.0042H114.274C114.826 83.0042 115.391 83.0247 115.534 83.0451L115.787 83.0928V82.4318C115.787 82.0706 115.814 81.7775 115.841 81.7775C115.875 81.7775 115.943 81.8797 116.005 81.9956C116.175 82.3432 116.591 82.7929 116.884 82.9429C118.076 83.5494 119.426 82.9429 120.155 81.4708C120.809 80.1419 120.571 78.6426 119.542 77.6136C118.846 76.9184 117.961 76.6526 117.143 76.898C116.713 77.0207 116.23 77.4023 116.025 77.7839C115.95 77.9202 115.868 78.0293 115.841 78.0293C115.807 78.0293 115.787 76.8162 115.787 75.3374V72.6454L115.568 72.6591C115.446 72.6659 114.873 72.6863 114.308 72.6931ZM118.349 77.2455C118.758 77.5113 118.853 78.0156 118.853 79.9375C118.853 82.3977 118.683 82.8407 117.742 82.827C117.245 82.8202 116.897 82.6635 116.523 82.275C116.011 81.7434 115.787 81.0415 115.787 79.9852C115.787 79.072 115.896 78.4654 116.12 78.0633C116.345 77.6613 116.863 77.2387 117.252 77.1501C117.606 77.0615 118.145 77.1092 118.349 77.2455Z" fill="#FFFEFE"/>
<path d="M63.2443 72.884V73.0543H64.0621H64.8799V77.8589V82.6635H64.0621H63.2443V82.8338V83.0042H65.7658H68.2874V82.8338V82.6635H67.4696H66.6518V80.4486V78.2337H67.8716C68.669 78.2337 69.2755 78.1996 69.6231 78.1315C70.7135 77.927 71.4495 77.4023 71.8516 76.5436C72.0424 76.1347 72.0697 76.0189 72.0697 75.4737C72.0697 74.9148 72.0492 74.8126 71.8448 74.4037C71.5585 73.8176 70.9656 73.2588 70.4204 73.0543C69.6299 72.7545 69.1801 72.7204 66.127 72.7136H63.2443V72.884ZM69.2414 73.2043C69.6026 73.361 69.9707 73.8108 70.1001 74.2606C70.2637 74.7922 70.2569 75.9371 70.1001 76.4959C69.9434 77.0479 69.6095 77.4977 69.1937 77.6953C68.9007 77.8453 68.7576 77.8589 67.7626 77.8793L66.6518 77.9066V75.4737V73.0407L67.8307 73.068C68.6826 73.0884 69.0711 73.1293 69.2414 73.2043Z" fill="#FFFEFE"/>
<path d="M46.4453 75.3033C46.2613 75.3374 45.9614 75.3646 45.7842 75.3646L45.4571 75.3714V76.1892V77.007H44.7756H44.0941V77.1774V77.3478H44.7756H45.4571V79.6444C45.4571 81.1097 45.4844 82.0433 45.5321 82.2205C45.6275 82.5613 45.9682 82.902 46.309 82.9974C46.6566 83.0928 47.3312 83.0928 47.7742 82.9974C48.3194 82.8816 48.8033 82.459 49.035 81.8934C49.1304 81.6549 49.1304 81.6412 49.0077 81.6412C48.9328 81.6412 48.851 81.7162 48.8033 81.8389C48.6942 82.0842 48.2717 82.4999 48.0264 82.5885C47.7469 82.6976 47.3517 82.6771 47.1813 82.5613C46.9223 82.3772 46.8883 82.0569 46.8883 79.6444V77.3478H47.8083H48.7283V77.1774V77.007H47.8083H46.8883V76.1211C46.8883 75.6304 46.8678 75.242 46.8406 75.242C46.8065 75.2488 46.6361 75.276 46.4453 75.3033Z" fill="#FFFEFE"/>
<path d="M84.6756 75.3033C84.4916 75.3374 84.1918 75.3646 84.0146 75.3646L83.6875 75.3715V76.1893V77.0071H83.006H82.3245V77.1774C82.3245 77.3478 82.3245 77.3478 82.9991 77.3478H83.6806L83.7011 79.7467C83.7215 82.4659 83.7352 82.5136 84.2531 82.8543C84.5121 83.0247 84.5802 83.0383 85.2822 83.0383C85.9023 83.0383 86.0931 83.0111 86.3453 82.8952C86.8155 82.6771 87.1835 82.2682 87.3267 81.7912C87.3676 81.6753 87.3471 81.6412 87.2517 81.6412C87.1767 81.6412 87.0677 81.7571 86.9655 81.9411C86.7269 82.3977 86.3521 82.6294 85.8614 82.6294C85.398 82.6294 85.2754 82.5408 85.1868 82.1456C85.1527 82.0024 85.1186 80.8575 85.1186 79.6104V77.3478H86.0386H86.9587V77.1774V77.0071H86.0386H85.1186V76.1211C85.1186 75.6304 85.0982 75.242 85.0709 75.242C85.0368 75.2488 84.8665 75.276 84.6756 75.3033Z" fill="#FFFEFE"/>
<path d="M76.4641 76.9048C74.9239 77.341 73.9562 79.0174 74.3037 80.6598C74.4468 81.3345 74.7058 81.8048 75.1965 82.2886C76.7571 83.8424 79.2037 83.2632 79.7012 81.2119C79.7421 81.0619 79.7285 81.0279 79.6262 81.0279C79.5308 81.0279 79.4559 81.1369 79.34 81.4163C79.156 81.9002 78.7403 82.3977 78.3178 82.643C78.052 82.7998 77.9089 82.8338 77.3841 82.8543C76.8321 82.8747 76.7503 82.8679 76.539 82.718C76.0279 82.3704 75.9325 82.0297 75.9053 80.5167L75.8848 79.5626L77.8339 79.5422L79.783 79.5286L79.7216 79.106C79.599 78.1996 79.0197 77.4023 78.2019 77.0343C77.718 76.8094 76.9957 76.7617 76.4641 76.9048ZM77.7589 77.2592C78.0792 77.4432 78.236 77.8453 78.236 78.4518C78.236 78.738 78.2155 79.0174 78.1951 79.0788C78.161 79.1742 77.9906 79.1878 77.0365 79.1878H75.9189V78.5336C75.9189 77.8044 76.0143 77.5045 76.3142 77.3069C76.7026 77.0547 77.3773 77.0275 77.7589 77.2592Z" fill="#FFFEFE"/>
<path d="M92.3164 76.8775C91.3487 77.1092 90.3946 78.0633 90.1356 79.0855C89.7948 80.3872 90.2446 81.7979 91.2601 82.5544C91.8393 82.9905 92.3164 83.1541 93.0251 83.1609C93.5363 83.1677 93.6589 83.1473 94.061 82.9565C94.7698 82.6225 95.2536 82.0432 95.4649 81.28C95.5331 81.0346 95.5262 81.021 95.3968 81.0414C95.3013 81.0551 95.2196 81.1641 95.131 81.4026C94.8107 82.2477 94.1292 82.7929 93.2977 82.8542C92.698 82.8951 92.3982 82.8338 92.1392 82.6225C91.8257 82.3567 91.7235 81.9138 91.6826 80.6325L91.6417 79.5285H93.6044H95.5671L95.5194 79.181C95.3013 77.559 93.8566 76.5163 92.3164 76.8775ZM93.4954 77.2455C93.9111 77.4568 94.0746 77.9406 93.9997 78.7243L93.9588 79.1878H92.8139H91.6621V78.5744C91.6621 77.6885 91.8257 77.3818 92.3913 77.1705C92.698 77.0547 93.2023 77.0888 93.4954 77.2455Z" fill="#FFFEFE"/>
<path d="M107.541 76.8639C106.996 77.0411 106.532 77.4091 106.294 77.8589C106.082 78.2474 106.089 79.0379 106.294 79.4332C106.621 80.0465 107.166 80.3259 108.522 80.5849C109.047 80.6803 109.538 80.7962 109.613 80.8371C110.253 81.1642 110.294 81.9002 109.715 82.425C109.333 82.7657 109.061 82.8679 108.515 82.8679C107.548 82.8679 106.771 82.1864 106.389 81.0074C106.328 80.8302 106.266 80.7553 106.171 80.7553C106.048 80.7553 106.042 80.8166 106.042 81.8457C106.042 83.0928 106.055 83.1133 106.553 82.6976L106.839 82.4658L107.071 82.643C107.541 82.9974 108.018 83.1678 108.529 83.1678C109.313 83.1678 109.912 82.8134 110.321 82.1251C110.58 81.6821 110.621 80.7962 110.403 80.2919C110.11 79.6172 109.531 79.2764 108.304 79.0584C107.248 78.8675 107.016 78.7858 106.812 78.5472C106.498 78.1724 106.689 77.6272 107.261 77.2933C107.527 77.1365 107.65 77.1093 108.086 77.1161C108.897 77.1161 109.435 77.4909 109.701 78.2337C109.783 78.4654 109.858 78.5745 109.94 78.5745C110.049 78.5745 110.062 78.4927 110.062 77.7567C110.062 76.8503 110.008 76.7617 109.735 77.1842L109.572 77.4296L109.429 77.2933C109.129 77.0207 108.693 76.8571 108.195 76.8299C107.929 76.8162 107.636 76.8299 107.541 76.8639Z" fill="#FFFEFE"/>
<path d="M143.23 76.8775C142.058 77.1501 141.22 78.2405 141.377 79.29C141.445 79.7398 141.792 80.2714 142.195 80.5372C142.385 80.6667 142.542 80.7893 142.556 80.8098C142.563 80.837 142.413 80.8984 142.215 80.9461C141.35 81.1505 140.893 81.8525 141.036 82.7657C141.091 83.1678 141.424 83.5494 141.888 83.747C142.079 83.8288 142.229 83.9038 142.229 83.9242C142.229 83.9379 142.017 84.0878 141.758 84.265C141.193 84.6398 141.002 84.9124 141.002 85.3486C141.002 85.7915 141.138 86.0641 141.513 86.3981C142.079 86.8956 143.074 87.1477 144.123 87.0659C145.704 86.9365 146.767 86.2073 147.108 85.0214C147.319 84.2718 147.135 83.4199 146.652 82.9429C146.202 82.4999 146.168 82.4931 143.844 82.4931H141.738L141.608 82.3295C141.431 82.1115 141.445 81.8252 141.656 81.5731C142.004 81.1642 142.14 81.1301 143.421 81.1301H144.58L145.036 80.8984C145.991 80.4213 146.386 79.8761 146.386 79.0447C146.386 78.6767 146.345 78.52 146.175 78.1724C145.97 77.7635 145.97 77.743 146.079 77.6136C146.263 77.4159 146.481 77.45 146.686 77.7226C146.836 77.9134 146.917 77.9611 147.101 77.9611C147.381 77.9611 147.612 77.7022 147.612 77.4023C147.612 77.1161 147.285 76.8026 146.992 76.8026C146.679 76.8026 146.215 77.0411 145.984 77.3273L145.786 77.5659L145.391 77.2864C144.777 76.8639 143.96 76.7072 143.23 76.8775ZM144.593 77.3205C144.948 77.5863 144.989 77.7567 144.989 78.9834C144.982 80.653 144.88 80.8302 143.912 80.837C143.339 80.837 143.094 80.7553 142.944 80.5304C142.794 80.2987 142.685 79.2628 142.726 78.5336C142.787 77.6204 142.917 77.3546 143.387 77.1842C143.442 77.1638 143.694 77.157 143.946 77.1638C144.28 77.1774 144.457 77.2183 144.593 77.3205ZM146.011 83.8288C146.161 83.8697 146.393 84.0196 146.536 84.1628C146.774 84.3945 146.795 84.4558 146.795 84.7897C146.795 85.3213 146.488 85.8052 145.929 86.1868C145.323 86.5889 144.873 86.7116 143.966 86.7184C143.04 86.7184 142.617 86.5957 142.27 86.2073C141.997 85.9074 141.929 85.628 141.97 85.0555C141.997 84.6194 142.229 84.19 142.522 83.9924C142.781 83.822 145.52 83.6925 146.011 83.8288Z" fill="#FFFEFE"/>
<path d="M102.088 76.9389C101.959 76.9593 101.781 77.0207 101.706 77.0615C101.461 77.191 101.011 77.7499 100.889 78.0702C100.827 78.2337 100.745 78.37 100.718 78.37C100.684 78.37 100.657 78.0429 100.657 77.6476V76.9184L100.241 76.9661C100.009 76.9866 99.4097 77.007 98.9122 77.007H97.999V77.1774C97.999 77.3478 98.0058 77.3478 98.6124 77.3478H99.2257V80.0056V82.6635H98.6124C98.0058 82.6635 97.999 82.6635 97.999 82.8338V83.0042H99.9754H101.952V82.8338C101.952 82.6635 101.952 82.6635 101.297 82.6635H100.643L100.67 81.0074C100.711 79.0379 100.793 78.5881 101.223 77.9407C101.468 77.5795 101.536 77.5181 101.713 77.5181C101.918 77.5181 101.918 77.525 101.931 77.9202C101.945 78.3768 102.061 78.5472 102.402 78.6154C102.688 78.6699 103.11 78.4722 103.226 78.2337C103.417 77.8521 103.26 77.2796 102.892 77.0547C102.688 76.9252 102.381 76.8844 102.088 76.9389Z" fill="#FFFEFE"/>
<path d="M137.021 76.9661C136.612 77.082 136.313 77.3682 135.992 77.9611L135.754 78.4041V77.6613V76.9184L135.297 76.9593C135.038 76.9866 134.425 77.007 133.934 77.007H133.028V77.1774C133.028 77.3478 133.028 77.3478 133.675 77.3478H134.323V80.0056V82.6635H133.675C133.028 82.6635 133.028 82.6635 133.028 82.8338V83.0042H135.004H136.98V82.8338C136.98 82.6635 136.974 82.6635 136.367 82.6635H135.754V81.0074C135.754 79.7944 135.781 79.2423 135.856 78.9289C136.04 78.1383 136.476 77.4841 136.81 77.4841C136.974 77.4841 136.98 77.5045 136.98 77.8793C136.98 78.1179 137.021 78.3291 137.083 78.4177C137.294 78.7244 137.934 78.6699 138.207 78.3223C138.303 78.1996 138.343 78.0429 138.343 77.818C138.343 77.5454 138.309 77.4432 138.132 77.2524C138.016 77.1161 137.812 76.9798 137.676 76.9389C137.382 76.8571 137.437 76.8571 137.021 76.9661Z" fill="#FFFEFE"/>
<path d="M123.01 77.1774C123.01 77.3478 123.017 77.3478 123.555 77.3478H124.101V79.3105C124.101 81.3754 124.155 81.9138 124.394 82.3363C124.68 82.8543 125.321 83.1132 126.132 83.0587C126.915 83.0042 127.488 82.6498 127.931 81.9683L128.156 81.6207L128.176 82.3568L128.196 83.086L128.408 83.0451C128.524 83.0246 129.089 83.0042 129.662 83.0042H130.711V82.8338C130.711 82.6634 130.704 82.6634 130.166 82.6634H129.621V79.8352V77.007H128.292H126.963V77.1774C126.963 77.3478 126.97 77.3478 127.576 77.3478H128.19V78.8948C128.19 80.9597 128.06 81.5049 127.413 82.1728C127.052 82.5544 126.704 82.7316 126.322 82.7316C125.92 82.7316 125.818 82.6839 125.682 82.4317C125.58 82.2477 125.566 81.9206 125.545 79.6103L125.525 77.007H124.264H123.01V77.1774Z" fill="#FFFEFE"/>
<path d="M52.8293 81.4368C52.5635 81.6003 52.3386 81.9479 52.3386 82.2001C52.3386 83.1065 53.3745 83.5085 53.9674 82.827C54.6285 82.0774 53.6812 80.9188 52.8293 81.4368Z" fill="#FFFEFE"/>
</svg>
